<?xml version="1.0" encoding="utf-8"?>
<svg xmlns="http://www.w3.org/2000/svg" fill="none" height="100%" overflow="visible" preserveAspectRatio="none" style="display: block;" viewBox="0 0 179 179" width="100%">
<g clip-path="url(#clip0_0_108)" id="undraw_online-world_myxf 1">
<path d="M169.502 167.299C168.269 171.603 164.666 174.616 160.909 177.175C160.384 177.533 159.859 177.882 159.334 178.223C159.33 178.224 159.327 178.228 159.323 178.229C159.298 178.246 159.273 178.262 159.249 178.279C159.141 178.349 159.032 178.419 158.925 178.488L158.984 178.515C158.984 178.515 159.042 178.546 158.978 178.52C158.96 178.512 158.94 178.505 158.921 178.497C156.738 177.612 154.516 176.661 152.843 175.002C151.108 173.28 150.094 170.578 151.033 168.316C151.157 168.019 151.313 167.738 151.499 167.476C151.575 167.366 151.657 167.261 151.742 167.158C152.261 166.522 152.938 166.036 153.705 165.751C154.472 165.465 155.301 165.39 156.106 165.533C156.912 165.677 157.665 166.033 158.288 166.566C158.911 167.099 159.381 167.789 159.651 168.566C159.927 165.981 157.808 163.815 155.768 162.218C153.727 160.621 151.409 158.882 151.014 156.311C150.794 154.881 151.288 153.495 152.189 152.382C152.217 152.349 152.245 152.315 152.274 152.282C153.37 150.986 154.913 150.154 156.593 149.952C159.722 149.625 162.761 151.29 165.034 153.478C168.693 156.998 170.905 162.405 169.502 167.299Z" fill="var(--fill-0, #F2F2F2)" id="Vector"/>
<path d="M163.621 161.669C164.221 162.609 164.683 163.631 164.99 164.705C165.249 165.664 165.365 166.657 165.332 167.651C165.249 169.696 164.678 171.69 163.668 173.467C162.907 174.815 161.98 176.061 160.909 177.175C160.384 177.533 159.859 177.882 159.334 178.223C159.33 178.224 159.327 178.228 159.323 178.229C159.298 178.246 159.273 178.262 159.249 178.278C159.141 178.349 159.032 178.419 158.925 178.488C158.925 178.488 159.042 178.546 158.978 178.52C158.96 178.512 158.94 178.505 158.921 178.497C159.117 176.884 158.925 175.247 158.362 173.724C157.799 172.2 156.881 170.835 155.686 169.742C154.487 168.665 153.052 167.889 151.499 167.476C151.575 167.366 151.657 167.261 151.742 167.158C152.342 167.328 152.926 167.55 153.488 167.823C155.493 168.791 157.136 170.384 158.172 172.364C159.101 174.162 159.501 176.19 159.325 178.209C159.415 178.128 159.505 178.044 159.592 177.961C161.25 176.406 162.724 174.621 163.721 172.561C164.586 170.816 165.011 168.884 164.959 166.935C164.878 164.81 164.036 162.841 162.817 161.128C161.481 159.3 159.902 157.664 158.125 156.266C156.335 154.824 154.375 153.607 152.291 152.643C152.244 152.621 152.207 152.582 152.188 152.533C152.169 152.485 152.17 152.431 152.189 152.382C152.203 152.339 152.233 152.303 152.274 152.282C152.294 152.273 152.317 152.269 152.339 152.27C152.362 152.271 152.384 152.277 152.404 152.288C152.661 152.407 152.917 152.527 153.17 152.653C155.282 153.703 157.256 155.012 159.046 156.551C160.776 158.034 162.404 159.729 163.621 161.669Z" fill="var(--fill-0, white)" id="Vector_2"/>
<path d="M1.78511 159.1C3.78195 166.067 9.61251 170.943 15.6945 175.086C16.5437 175.665 17.3932 176.23 18.243 176.782C18.2487 176.784 18.2546 176.79 18.2605 176.792C18.3014 176.819 18.3423 176.845 18.3804 176.872C18.5558 176.985 18.7312 177.099 18.9052 177.211L18.8096 177.255C18.8096 177.255 18.7158 177.305 18.8184 177.263C18.849 177.25 18.881 177.238 18.9115 177.225C22.4447 175.792 26.0407 174.254 28.7485 171.569C31.5573 168.781 33.1988 164.409 31.6778 160.746C31.4779 160.267 31.2254 159.811 30.9249 159.388C30.8016 159.21 30.6687 159.04 30.5304 158.873C29.6914 157.844 28.5948 157.057 27.3534 156.595C26.112 156.133 24.7706 156.011 23.4671 156.243C22.1635 156.475 20.945 157.052 19.9367 157.914C18.9283 158.777 18.1666 159.894 17.7299 161.151C17.2831 156.967 20.7136 153.462 24.015 150.877C27.3178 148.292 31.0707 145.478 31.7092 141.317C32.0658 139.002 31.2653 136.759 29.8072 134.958C29.762 134.903 29.7169 134.849 29.6704 134.795C27.8954 132.698 25.3989 131.351 22.6796 131.024C17.6151 130.494 12.6958 133.19 9.01664 136.731C3.09498 142.429 -0.484913 151.18 1.78511 159.1Z" fill="var(--fill-0, #F2F2F2)" id="Vector_3"/>
<path d="M11.3044 149.988C10.3324 151.509 9.5862 153.164 9.08925 154.902C8.66899 156.454 8.48194 158.062 8.53431 159.67C8.62533 162.976 9.63688 166.207 11.2284 169.084C12.4597 171.266 13.9603 173.283 15.6945 175.086C16.5437 175.664 17.3932 176.23 18.243 176.782C18.2487 176.784 18.2546 176.79 18.2605 176.792C18.3014 176.819 18.3423 176.845 18.3804 176.872C18.5558 176.985 18.7312 177.099 18.9051 177.211C18.9051 177.211 18.7158 177.305 18.8184 177.263C18.849 177.25 18.881 177.238 18.9115 177.225C18.5948 174.614 18.905 171.965 19.8162 169.5C20.7273 167.034 22.2128 164.824 24.1481 163.055C26.0882 161.313 28.4102 160.056 30.9249 159.388C30.8016 159.21 30.6687 159.04 30.5303 158.873C29.5591 159.147 28.6139 159.507 27.7056 159.948C24.459 161.516 21.8006 164.094 20.124 167.299C18.6195 170.21 17.9719 173.492 18.2574 176.76C18.1123 176.627 17.9669 176.492 17.826 176.358C15.1411 173.841 12.7563 170.952 11.1424 167.617C9.74228 164.793 9.05412 161.666 9.13858 158.512C9.2703 155.072 10.633 151.886 12.6061 149.113C14.7197 146.144 17.3694 143.518 20.1991 141.243C23.0973 138.909 26.2686 136.94 29.6424 135.38C29.7185 135.345 29.7781 135.281 29.8087 135.202C29.8394 135.124 29.8388 135.036 29.8071 134.958C29.7846 134.888 29.7355 134.829 29.6704 134.795C29.6369 134.781 29.6006 134.774 29.5642 134.776C29.5277 134.777 29.4921 134.787 29.46 134.804C29.0434 134.997 28.6298 135.193 28.2194 135.397C24.8016 137.095 21.6069 139.215 18.7087 141.706C15.9092 144.106 13.2737 146.848 11.3044 149.988Z" fill="var(--fill-0, white)" id="Vector_4"/>
<path d="M136.938 42.4723H135.961V15.5702C135.961 13.5255 135.561 11.5008 134.783 9.61175C134.004 7.72269 132.864 6.00624 131.426 4.56041C129.989 3.11459 128.282 1.96769 126.403 1.18522C124.525 0.402739 122.512 1.65071e-06 120.478 -9.29278e-07H63.8023C59.696 -1.00477e-05 55.7578 1.64041 52.8542 4.56037C49.9506 7.48034 48.3194 11.4407 48.3194 15.5701V163.157C48.3194 167.286 49.9506 171.247 52.8542 174.167C55.7578 177.087 59.6959 178.727 63.8022 178.727H120.478C124.585 178.727 128.523 177.087 131.426 174.167C134.33 171.247 135.961 167.286 135.961 163.157V61.6216H136.938L136.938 42.4723Z" fill="var(--fill-0, #CCCCCC)" id="Vector_5"/>
<path d="M132.666 15.6788V163.048C132.666 166.132 131.447 169.09 129.279 171.271C127.11 173.451 124.169 174.677 121.103 174.677H64.1548C61.0882 174.677 58.1471 173.451 55.9786 171.271C53.8102 169.09 52.5919 166.132 52.5919 163.048V15.6788C52.5919 12.5949 53.8102 9.63723 55.9786 7.45653C58.1471 5.27584 61.0882 4.05071 64.1548 4.05066H71.0633C70.7238 4.88955 70.5945 5.79948 70.6868 6.7004C70.7791 7.60133 71.0902 8.46565 71.5926 9.21732C72.095 9.96899 72.7734 10.585 73.5681 11.0111C74.3628 11.4373 75.2494 11.6605 76.15 11.6612H108.619C109.52 11.6605 110.406 11.4373 111.201 11.0111C111.996 10.585 112.674 9.96898 113.177 9.21731C113.679 8.46563 113.99 7.60132 114.082 6.7004C114.175 5.79948 114.045 4.88955 113.706 4.05066H121.103C124.169 4.05071 127.11 5.27584 129.279 7.45653C131.447 9.63723 132.666 12.5949 132.666 15.6788Z" fill="var(--fill-0, white)" id="Vector_6"/>
<path d="M86.107 67.7793C83.0821 66.3818 81.0937 62.3864 81.2069 58.446C81.3202 54.5057 83.3821 50.8205 86.226 48.9414C89.0699 47.0623 92.5809 46.9201 95.633 48.2266C98.6851 49.5331 102.783 49.889 104.618 53.1364C106.027 55.6319 105.52 61.1993 104.521 63.9742C103.659 66.3726 101.549 67.724 99.492 68.4803C97.2151 69.3098 94.7876 69.6379 92.3737 69.4423C89.9598 69.2468 87.6158 68.5322 85.5002 67.3468L86.107 67.7793Z" fill="var(--fill-0, #2F2E41)" id="Vector_7"/>
<path d="M103.332 113.515L102.054 108.279L101.964 107.904C101.891 107.612 101.743 107.346 101.533 107.132C101.323 106.917 101.061 106.763 100.772 106.686L99.4976 106.342L98.367 106.035L95.9274 105.377H95.9249L90.9945 104.046L86.6306 102.864L85.5757 102.58L82.677 101.796L80.8748 101.31L78.0787 100.556L77.854 100.495C77.4655 100.391 77.0529 100.43 76.6907 100.605C76.3284 100.78 76.0403 101.08 75.8784 101.45C75.7563 101.732 75.6367 102.02 75.5194 102.312C74.0932 105.935 73.0123 109.686 72.2911 113.515C72.2594 113.677 72.2252 113.842 72.1959 114.006H98.0813C98.0813 114.036 98.0813 114.063 98.0837 114.092C98.1277 114.065 98.1716 114.038 98.2156 114.006H103.451L103.332 113.515Z" fill="var(--fill-0, #2F2E41)" id="Vector_8"/>
<path d="M98.8358 68.8166C102.414 65.2187 102.414 59.3853 98.8358 55.7874C95.2581 52.1894 89.4574 52.1894 85.8796 55.7874C82.3019 59.3853 82.3019 65.2187 85.8796 68.8166C89.4574 72.4146 95.2581 72.4146 98.8358 68.8166Z" fill="var(--fill-0, #FFB8B8)" id="Vector_9"/>
<path d="M102.13 110.659C101.176 111.728 100.106 112.686 98.9405 113.515C98.7036 113.685 98.4619 113.849 98.2152 114.007C98.1713 114.039 98.1273 114.066 98.0833 114.093C98.0809 114.063 98.0809 114.036 98.0809 114.007H77.0942C77.0519 113.972 77.0119 113.934 76.9745 113.894C76.8426 113.776 76.7133 113.646 76.5886 113.515C75.7667 112.67 75.0723 111.707 74.5276 110.659L77.0917 103.368L78.0783 100.556L79.5118 96.4845L81.0551 92.0911C80.921 91.6848 80.8117 91.2706 80.7279 90.8509V90.8485C79.2651 83.3878 86.4641 76.1481 86.4641 76.1481C86.5203 76.1039 86.5765 76.0621 86.6327 76.0229C87.3265 75.5072 88.0801 75.0784 88.8769 74.7458C92.2518 73.3387 95.7853 73.906 98.1639 74.6329C98.9905 74.8825 99.7984 75.1911 100.581 75.5563C100.86 75.6889 101.011 75.7724 101.011 75.7724L101.248 82.9826L101.571 92.8401L101.744 98.3386L101.961 105.276L102.054 108.28L102.13 110.659Z" fill="var(--fill-0, #FFD545)" id="Vector_10"/>
<path d="M112.443 113.515L110.138 101.74L109.815 100.094L111.373 93.0805L110.643 89.3502L107.92 75.4381C107.853 75.1031 107.687 74.7962 107.444 74.5574C107.201 74.3186 106.892 74.1591 106.557 74.0997L103.227 73.5226L100.133 72.9848C99.8344 72.9311 99.5274 72.9603 99.2446 73.0694C98.9618 73.1785 98.7141 73.3632 98.5281 73.6036C98.2941 73.8951 98.1658 74.258 98.1643 74.6326C98.165 74.8641 98.2123 75.093 98.3035 75.3055C100.562 80.6027 99.7174 90.2294 98.9018 99.5368C98.8773 99.8094 98.8529 100.082 98.831 100.355C98.66 102.29 98.4988 104.195 98.367 106.035C98.323 106.646 98.2839 107.253 98.2473 107.85C98.1277 109.839 98.0593 111.742 98.0739 113.515C98.0739 113.68 98.0764 113.844 98.0813 114.006C98.0813 114.036 98.0813 114.063 98.0837 114.092C98.1277 114.065 98.1716 114.038 98.2156 114.006H112.538L112.443 113.515Z" fill="var(--fill-0, #2F2E41)" id="Vector_11"/>
<path d="M88.8773 74.7456C88.81 74.4721 88.6759 74.2198 88.4871 74.0117C88.2983 73.8036 88.0608 73.6461 87.7961 73.5537C87.5315 73.4612 87.2481 73.4367 86.9717 73.4823C86.6952 73.5279 86.4344 73.6422 86.213 73.8149L85.3657 74.5884L78.9358 80.475C78.7538 80.6404 78.6104 80.8441 78.5158 81.0717C77.9175 82.5133 76.8015 85.2269 75.4828 88.6061C75.0164 89.8045 74.5231 91.0889 74.0176 92.4273C73.1751 94.6596 75.9932 98.0781 75.1482 100.499C75.0017 100.924 74.8463 101.342 74.6818 101.752C72.97 106.086 70.5377 109.748 69.6977 113.515C69.661 113.68 69.6244 113.844 69.5902 114.006H78.8919C78.9041 113.969 78.9163 113.933 78.9285 113.893C78.9651 113.768 79.0042 113.643 79.0433 113.515C79.7295 111.263 80.4963 108.79 81.3046 106.192C81.4169 105.833 81.5293 105.472 81.6416 105.109C81.981 104.021 82.3262 102.917 82.677 101.796C82.7258 101.634 82.7771 101.472 82.8284 101.31C82.9456 100.932 83.0637 100.554 83.1825 100.175C83.3388 99.6793 83.4951 99.1816 83.6514 98.6822C84.0567 97.3855 84.4646 96.0815 84.8724 94.7849C86.5256 89.5074 86.1642 84.4312 87.4096 80.3792C87.4292 80.3202 87.4463 80.2638 87.4633 80.2073C87.9982 78.4637 88.4695 76.9165 88.8504 75.6272C88.937 75.341 88.9463 75.0367 88.8773 74.7456Z" fill="var(--fill-0, #2F2E41)" id="Vector_12"/>
<path d="M98.8713 50.8345C99.2012 50.8829 99.5377 50.8206 99.8288 50.6572C100.12 50.4938 100.349 50.2385 100.481 49.9307C100.604 49.6189 100.653 49.2831 100.626 48.949C100.6 48.615 100.497 48.2915 100.326 48.0035C99.9795 47.4296 99.4954 46.9521 98.918 46.6144C98.2531 46.1675 97.4844 45.9015 96.6869 45.8424C96.2889 45.8162 95.89 45.8763 95.5171 46.0186C95.1442 46.1609 94.8061 46.3822 94.5257 46.6674C94.2522 46.9597 94.0715 47.3274 94.007 47.7235C93.9424 48.1196 93.9968 48.5261 94.1633 48.8909C94.4983 49.5405 95.2012 49.9048 95.886 50.1522C97.2447 50.6416 98.6918 50.8328 100.13 50.7127L98.8713 50.8345Z" fill="var(--fill-0, #2F2E41)" id="Vector_13"/>
<path d="M102.129 60.7691C100.702 61.1871 100.78 60.4135 99.9969 59.1423C99.2142 57.871 98.1967 56.375 96.712 56.4546C95.4953 56.5198 94.6479 57.6314 93.7806 58.492C92.2348 60.0261 89.9909 60.9974 87.8697 60.5292C85.7485 60.0609 83.9995 57.8602 84.4656 55.7271C84.7266 54.5322 85.6057 53.5384 86.659 52.9262C87.7122 52.3141 88.9287 52.0444 90.1371 51.9037C92.8294 51.5925 95.5568 51.8794 98.1268 52.7441C99.9008 53.3427 101.684 54.3109 102.567 55.9699C103.45 57.629 104.223 60.0297 102.502 60.7691H102.129Z" fill="var(--fill-0, #2F2E41)" id="Vector_14"/>
<path d="M125.595 62.2235V70.6739C125.432 70.7156 125.271 70.7549 125.107 70.7893C123.93 71.0521 122.731 71.2264 121.539 71.3713C119.691 71.5973 117.793 71.7643 115.991 71.3001C113.471 70.6518 111.361 68.7805 110.081 66.499C108.804 64.2201 108.301 61.5629 108.282 58.945C108.267 56.9067 108.531 54.866 108.391 52.8326C108.25 50.7992 107.642 48.6946 106.177 47.2874C104.711 45.8778 102.235 45.4161 100.628 46.6562C100.356 46.878 100.099 47.1184 99.859 47.3758C99.5485 47.7249 99.1831 48.0202 98.7772 48.2501C98.0495 48.6184 96.8993 48.3311 96.8505 47.5133L97.6124 46.0816C97.588 46.0497 97.5611 46.0153 97.5367 45.9834C96.4207 44.4362 96.8871 42.0811 98.2668 40.7525C99.6759 39.392 101.774 38.9696 103.717 39.1415C105.645 39.3365 107.488 40.038 109.061 41.1755C110.634 42.313 111.882 43.8466 112.68 45.6224C113.91 48.449 113.898 51.6833 115.012 54.5614C115.612 56.0907 116.513 57.4822 117.661 58.6525C118.809 59.8227 120.181 60.7475 121.693 61.3714C122.785 61.8119 123.935 62.0875 125.107 62.1891C125.271 62.2039 125.432 62.2137 125.595 62.2235Z" fill="var(--fill-0, #2F2E41)" id="Vector_15"/>
<path d="M96.0295 98.5951H95.9259V95.7419C95.9259 95.304 95.7529 94.884 95.445 94.5743C95.137 94.2646 94.7194 94.0906 94.2838 94.0906H88.273C88.0573 94.0906 87.8438 94.1333 87.6446 94.2163C87.4454 94.2993 87.2644 94.421 87.1119 94.5743C86.9594 94.7276 86.8384 94.9097 86.7559 95.11C86.6734 95.3104 86.6309 95.5251 86.6309 95.7419V111.394C86.6309 111.832 86.8039 112.252 87.1119 112.562C87.4198 112.872 87.8375 113.046 88.273 113.046H94.2838C94.4995 113.046 94.713 113.003 94.9122 112.92C95.1115 112.837 95.2925 112.715 95.445 112.562C95.5974 112.409 95.7184 112.227 95.8009 112.026C95.8834 111.826 95.9259 111.611 95.9259 111.394V100.626H96.0295V98.5951Z" fill="var(--fill-0, #3F3D56)" id="Vector_16"/>
<path d="M91.3302 101.961C92.3602 101.961 93.1952 101.122 93.1952 100.086C93.1952 99.0501 92.3602 98.2104 91.3302 98.2104C90.3002 98.2104 89.4652 99.0501 89.4652 100.086C89.4652 101.122 90.3002 101.961 91.3302 101.961Z" fill="var(--fill-0, white)" id="Vector_17"/>
<path d="M90.533 105.084C90.489 105.03 90.4402 104.979 90.3913 104.927C89.9885 104.512 89.5034 104.186 88.9675 103.971C88.4316 103.756 87.8567 103.657 87.2802 103.68C87.0967 103.689 86.914 103.711 86.7332 103.744L86.6306 103.64L85.5757 102.58L83.1825 100.175L81.6977 98.6822L79.5121 96.4843L77.8711 94.8364L77.2337 94.1955L78.3595 89.7628L75.4828 88.6061L71.7343 87.1007L71.6757 87.0761L71.5365 87.4592L70.5353 90.2515L69.788 92.3266C69.353 93.5525 69.279 94.8786 69.5749 96.1458C69.8707 97.413 70.5238 98.5674 71.4559 99.4705C71.6685 99.6762 71.8944 99.8674 72.1324 100.043L74.6818 101.752L75.5194 102.312L77.0921 103.368L79.688 105.109L81.3046 106.192L83.3559 107.567C83.3463 107.702 83.3438 107.837 83.3486 107.972C83.3725 108.552 83.5178 109.121 83.7749 109.64C84.032 110.16 84.3951 110.619 84.8406 110.988C85.3741 111.435 86.0135 111.735 86.6966 111.86H86.699C87.5547 112.019 88.4383 111.902 89.224 111.526C89.7423 111.274 90.2024 110.916 90.5746 110.474C90.9468 110.033 91.223 109.518 91.3852 108.962C91.4694 108.682 91.5218 108.394 91.5415 108.103C91.5825 107.557 91.5144 107.009 91.3412 106.491C91.1679 105.972 90.8931 105.494 90.533 105.084Z" fill="var(--fill-0, #FFB8B8)" id="Vector_18"/>
<path d="M114.623 94.2348L114.247 91.9656L113.71 88.7313L110.643 89.3502L106.655 90.1557L106.965 94.721L106.736 94.8806L101.744 98.3384L98.831 100.355L95.9274 102.366L95.925 102.368L95.903 102.383C95.7322 102.316 95.5567 102.262 95.3779 102.221C94.8152 102.093 94.2319 102.085 93.666 102.198C93.1001 102.312 92.5643 102.544 92.0934 102.879C91.654 103.191 91.2805 103.588 90.9945 104.046C90.7922 104.368 90.6368 104.718 90.533 105.084C90.4657 105.317 90.4183 105.554 90.3913 105.794C90.3291 106.363 90.3854 106.938 90.5565 107.483C90.7276 108.029 91.0099 108.532 91.3852 108.962C91.8486 109.499 92.4439 109.905 93.1117 110.138C94.024 110.463 95.0214 110.45 95.9249 110.102H95.9274C96.1119 110.032 96.2907 109.948 96.4622 109.851C97.2629 109.403 97.8913 108.699 98.2473 107.85C98.3433 107.626 98.4185 107.394 98.472 107.157C98.5007 107.025 98.5227 106.891 98.5379 106.757L99.4976 106.342L101.962 105.276L110.137 101.74L110.929 101.398C111.604 101.071 112.218 100.63 112.746 100.094C113.498 99.3369 114.06 98.4107 114.386 97.392C114.713 96.3733 114.794 95.2912 114.623 94.2348Z" fill="var(--fill-0, #FFB8B8)" id="Vector_19"/>
<path d="M87.1972 77.3807C87.0742 76.9033 86.8843 76.4461 86.6331 76.0226C86.3051 75.4679 85.8749 74.9811 85.3657 74.5884C85.151 74.4231 84.924 74.2745 84.6868 74.1439C83.4878 73.4828 82.0769 73.3274 80.7641 73.7119C79.4513 74.0964 78.344 74.9894 77.6855 76.1945L71.7343 87.1007L71.5365 87.4592L70.147 90.0084L70.5353 90.2515L74.0176 92.4273L77.8711 94.8364L78.1422 95.0059L80.7283 90.8507V90.8482L86.5793 81.4401C86.8044 81.0796 86.9849 80.6928 87.1166 80.2883C87.1337 80.2318 87.1508 80.1729 87.1679 80.1164C87.4231 79.2239 87.4332 78.2785 87.1972 77.3807Z" fill="var(--fill-0, #2F2E41)" id="Vector_20"/>
<path d="M109.688 76.585C109.212 75.3351 108.273 74.3187 107.069 73.748C105.865 73.1773 104.488 73.0966 103.227 73.5226C103.068 73.5766 102.912 73.638 102.758 73.7068C101.873 74.1041 101.119 74.7452 100.582 75.556C100.365 75.8805 100.187 76.2291 100.05 76.5948C99.8075 77.2313 99.6933 77.9097 99.7134 78.5909C99.7336 79.272 99.8876 79.9424 100.167 80.5634L101.249 82.9823L106.589 94.9371L106.736 94.8806L111.373 93.0805L114.247 91.9656L115.371 91.5309L109.688 76.585Z" fill="var(--fill-0, #2F2E41)" id="Vector_21"/>
<path d="M84.1833 137.828H66.6008C65.4026 137.828 64.2535 137.349 63.4063 136.497C62.559 135.645 62.0831 134.489 62.0831 133.285C62.0831 132.08 62.559 130.924 63.4063 130.072C64.2535 129.22 65.4026 128.741 66.6008 128.741H84.1833C85.3815 128.741 86.5306 129.22 87.3779 130.072C88.2251 130.924 88.7011 132.08 88.7011 133.285C88.7011 134.489 88.2251 135.645 87.3779 136.497C86.5306 137.349 85.3815 137.828 84.1833 137.828Z" fill="var(--fill-0, #FFD545)" id="Vector_22"/>
<path d="M119.124 137.828H101.541C100.343 137.828 99.194 137.349 98.3467 136.497C97.4995 135.645 97.0235 134.489 97.0235 133.285C97.0235 132.08 97.4995 130.924 98.3467 130.072C99.194 129.22 100.343 128.741 101.541 128.741H119.124C120.322 128.741 121.471 129.22 122.318 130.072C123.166 130.924 123.642 132.08 123.642 133.285C123.642 134.489 123.166 135.645 122.318 136.497C121.471 137.349 120.322 137.828 119.124 137.828Z" fill="var(--fill-0, #E6E6E6)" id="Vector_23"/>
<path d="M178.756 179H0.244202C0.179436 179 0.117322 178.974 0.0715249 178.928C0.0257282 178.882 0 178.82 0 178.754C0 178.689 0.0257282 178.627 0.0715249 178.581C0.117322 178.535 0.179436 178.509 0.244202 178.509H178.756C178.821 178.509 178.883 178.535 178.928 178.581C178.974 178.627 179 178.689 179 178.754C179 178.82 178.974 178.882 178.928 178.928C178.883 178.974 178.821 179 178.756 179Z" fill="var(--fill-0, #3F3D56)" id="Vector_24"/>
<path d="M121.444 36.1577H63.8124C62.7119 36.1593 61.6568 36.5997 60.8786 37.3823C60.1004 38.1648 59.6625 39.2258 59.661 40.3326V109.831C59.6625 110.938 60.1004 111.999 60.8786 112.782C61.6568 113.564 62.7119 114.005 63.8124 114.006H121.444C122.545 114.005 123.6 113.565 124.378 112.782C125.157 112 125.594 110.938 125.595 109.831V40.3326C125.594 39.2257 125.157 38.1645 124.378 37.3818C123.6 36.5991 122.545 36.1589 121.444 36.1577ZM125.107 109.831C125.106 110.808 124.72 111.744 124.033 112.435C123.346 113.126 122.415 113.514 121.444 113.515H63.8124C62.8413 113.514 61.9102 113.126 61.2236 112.435C60.5369 111.744 60.1506 110.808 60.1494 109.831V40.3326C60.1506 39.356 60.5369 38.4197 61.2236 37.7291C61.9102 37.0386 62.8413 36.6501 63.8124 36.6489H121.444C122.415 36.6501 123.346 37.0386 124.033 37.7291C124.72 38.4197 125.106 39.356 125.107 40.3326V109.831Z" fill="var(--fill-0, #3F3D56)" id="Vector_25"/>
<path d="M75.382 54.8297C75.1748 54.829 74.9698 54.787 74.7788 54.706C74.5879 54.6251 74.4148 54.5068 74.2697 54.3581L66.8461 44.6155C66.6746 44.3916 66.4544 44.2102 66.2024 44.0851C65.9504 43.96 65.6733 43.8945 65.3923 43.8937H22.4002C20.2306 43.8937 18.1498 43.0269 16.6156 41.4841C15.0814 39.9412 14.2195 37.8487 14.2195 35.6668C14.2195 33.4849 15.0814 31.3923 16.6156 29.8495C18.1498 28.3067 20.2306 27.4399 22.4003 27.4399H76.1247C78.1038 27.4399 80.0158 28.1614 81.5063 29.4707C82.9969 30.78 83.9649 32.5883 84.2311 34.5604C84.4973 36.5326 84.0436 38.5349 82.954 40.1964C81.8644 41.8579 80.2128 43.0658 78.3053 43.5963C77.9227 43.7054 77.586 43.9372 77.3466 44.2566C77.1072 44.576 76.9783 44.9653 76.9794 45.3653V53.2293C76.9827 53.5458 76.8909 53.8559 76.7161 54.119C76.5413 54.3821 76.2915 54.5861 75.9995 54.7041C75.8039 54.7864 75.5941 54.8291 75.382 54.8297Z" fill="var(--fill-0, #FFD545)" id="Vector_26"/>
<path d="M24.9331 39.1962C26.8714 39.1962 28.4427 37.6161 28.4427 35.6668C28.4427 33.7176 26.8714 32.1374 24.9331 32.1374C22.9948 32.1374 21.4235 33.7176 21.4235 35.6668C21.4235 37.6161 22.9948 39.1962 24.9331 39.1962Z" fill="var(--fill-0, white)" id="Vector_27"/>
<path d="M35.8314 39.1962C37.7697 39.1962 39.341 37.6161 39.341 35.6668C39.341 33.7176 37.7697 32.1374 35.8314 32.1374C33.8931 32.1374 32.3218 33.7176 32.3218 35.6668C32.3218 37.6161 33.8931 39.1962 35.8314 39.1962Z" fill="var(--fill-0, white)" id="Vector_28"/>
<path d="M46.7297 39.1962C48.668 39.1962 50.2393 37.6161 50.2393 35.6668C50.2393 33.7176 48.668 32.1374 46.7297 32.1374C44.7914 32.1374 43.22 33.7176 43.22 35.6668C43.22 37.6161 44.7914 39.1962 46.7297 39.1962Z" fill="var(--fill-0, white)" id="Vector_29"/>
</g>
<defs>
<clipPath id="clip0_0_108">
<rect fill="white" height="179" width="179"/>
</clipPath>
</defs>
</svg>