<?xml version="1.0" encoding="utf-8"?>
<svg xmlns="http://www.w3.org/2000/svg" fill="none" height="100%" overflow="visible" preserveAspectRatio="none" style="display: block;" viewBox="0 0 185 171" width="100%">
<g clip-path="url(#clip0_0_188)" id="undraw_manage-chats_7wl6 1">
<path d="M15.1337 164.13L18.6552 165.051L23.8984 151.956L18.7007 150.597L15.1337 164.13Z" fill="var(--fill-0, #A0616A)" id="Vector"/>
<path d="M14.0449 167.758L24.8744 170.591L24.9104 170.454C25.2039 169.341 25.0414 168.156 24.4585 167.162C23.8756 166.168 22.9202 165.445 21.8023 165.152L21.8021 165.152L20.2181 163.139L16.1331 163.669L15.1877 163.422L14.0449 167.758Z" fill="var(--fill-0, #2F2E41)" id="Vector_2"/>
<path d="M33.1871 166.755L36.8282 166.755L38.5604 152.762L33.1863 152.763L33.1871 166.755Z" fill="var(--fill-0, #A0616A)" id="Vector_3"/>
<path d="M33.0589 170.539L44.2556 170.539V170.398C44.2555 169.246 43.7963 168.142 42.9791 167.327C42.1618 166.513 41.0533 166.056 39.8975 166.056H39.8972L37.852 164.51L34.0361 166.056L33.0587 166.056L33.0589 170.539Z" fill="var(--fill-0, #2F2E41)" id="Vector_4"/>
<path d="M24.0803 99.7964C23.2007 100.892 23.6405 104.616 23.6405 104.616C23.6405 104.616 22.1013 116.665 22.7609 117.76C23.4206 118.856 22.3212 119.732 21.6615 121.266C21.0018 122.799 20.3422 126.523 20.3422 126.523C16.6041 129.59 16.824 143.611 16.824 143.611L15.5046 156.098C15.9444 157.413 22.1013 157.632 22.9808 157.413C23.8604 157.194 32.436 126.304 32.436 126.304C32.436 126.304 31.9962 156.098 31.9962 157.413C31.9962 158.727 37.9332 158.07 39.2525 158.07C40.5719 158.07 48.9276 104.397 48.9276 104.397V101.33L47.8282 99.7964C47.8282 99.7964 24.9598 98.7011 24.0803 99.7964Z" fill="var(--fill-0, #2F2E41)" id="Vector_5"/>
<path d="M33.7553 59.7059C37.52 59.7059 40.5719 56.6654 40.5719 52.9147C40.5719 49.1639 37.52 46.1234 33.7553 46.1234C29.9907 46.1234 26.9388 49.1639 26.9388 52.9147C26.9388 56.6654 29.9907 59.7059 33.7553 59.7059Z" fill="var(--fill-0, #A0616A)" id="Vector_6"/>
<path d="M24.5972 104.641L24.56 104.589C22.5744 101.82 25.5608 95.1643 26.0112 94.1995C25.4764 94.0266 25.0182 93.6743 24.7148 93.2026C24.4113 92.7309 24.2814 92.169 24.3471 91.6126L24.5413 89.9682L24.7437 88.3552L23.2937 86.9106L23.2896 86.8746L22.4552 79.6003L21.2419 74.7687C20.7848 72.9423 20.8238 71.0275 21.3548 69.2209C21.8859 67.4144 22.8899 65.7812 24.2638 64.489L27.0683 64.0454L30.4765 60.7736H35.9727L37.8572 62.5675C41.5622 65.5933 42.4418 64.2788 46.6197 69.9747L43.6283 77.8266L45.3003 89.4075L45.3014 91.5033L46.1722 92.4676C46.4859 92.8149 46.7139 93.2304 46.8379 93.6811C46.9619 94.1317 46.9786 94.6049 46.8866 95.0631L46.7721 95.6336C47.2147 95.8226 47.6054 96.1145 47.9114 96.485C48.2174 96.8555 48.4297 97.2937 48.5306 97.7628L48.8365 99.1848C49.0982 99.5288 50.8254 101.823 50.8254 102.451C50.8254 102.545 50.7557 102.636 50.6059 102.737C49.4288 103.531 42.9228 105.15 40.0433 104.002C36.9761 102.78 24.7834 104.613 24.6606 104.632L24.5972 104.641Z" fill="var(--fill-0, #3F3D56)" id="Vector_7"/>
<path d="M21.1342 77.0926L26.802 75.9872C28.8981 79.1059 30.0234 87.6336 30.0234 87.6336L36.2897 100.581C36.6749 100.814 36.9912 101.145 37.2063 101.539C37.4215 101.934 37.5279 102.378 37.5146 102.827C37.5014 103.276 37.369 103.713 37.1309 104.094C36.8928 104.476 36.5576 104.787 36.1593 104.997C35.7611 105.207 35.314 105.309 34.8637 105.291C34.4134 105.273 33.9759 105.136 33.5958 104.895C33.2157 104.654 32.9066 104.316 32.6999 103.917C32.4932 103.518 32.3964 103.072 32.4192 102.624L24.2463 87.2832L21.1342 77.0926Z" fill="var(--fill-0, #A0616A)" id="Vector_8"/>
<path d="M21.1025 78.4323L20.9413 70.0396L23.6086 66.4845C24.1347 65.7885 24.8458 65.2529 25.6615 64.9384C26.4771 64.6239 27.3648 64.5429 28.2242 64.7047C29.3877 64.9317 30.4212 65.5905 31.1158 66.5477C31.8104 67.505 32.1143 68.6893 31.966 69.8612C31.5133 73.415 30.4855 77.8624 28.1601 78.8686L28.1366 78.8788L30.5466 87.2761L21.6092 88.5199L21.1025 78.4323Z" fill="var(--fill-0, #3F3D56)" id="Vector_9"/>
<path d="M54.7642 77.6907C54.7642 77.6907 47.9624 72.3938 44.2734 71.633L41.0083 76.3792L49.8387 81.7707L67.0309 86.7232C67.3319 87.0563 67.7161 87.3041 68.1444 87.4415C68.5726 87.5789 69.0298 87.6009 69.4694 87.5054C69.9089 87.4098 70.3153 87.2001 70.6472 86.8975C70.9792 86.5948 71.2248 86.2101 71.3593 85.7823C71.4937 85.3545 71.5121 84.8989 71.4127 84.4618C71.3132 84.0246 71.0995 83.6214 70.7931 83.2932C70.4867 82.9649 70.0985 82.7233 69.6681 82.5928C69.2377 82.4623 68.7802 82.4476 68.3422 82.5502L54.7642 77.6907Z" fill="var(--fill-0, #A0616A)" id="Vector_10"/>
<path d="M42.7975 78.7552L35.7091 74.2176L34.2289 70.0312C33.9414 69.2083 33.8905 68.3217 34.0822 67.4715C34.2739 66.6213 34.7004 65.8415 35.3135 65.2202C36.1504 64.3835 37.275 63.8946 38.4598 63.8524C39.6446 63.8102 40.8014 64.2178 41.6961 64.9928C44.4077 67.3453 47.9021 68.1338 47.4471 70.6186L48.7526 70.8085L55.4285 75.8598L51.4916 83.9499L42.7975 78.7552Z" fill="var(--fill-0, #3F3D56)" id="Vector_11"/>
<path d="M26.0235 48.4523C26.7889 47.2726 28.2253 46.4863 29.6177 46.7072C29.7473 45.8219 30.1183 44.9889 30.6901 44.2991C31.262 43.6092 32.0128 43.0889 32.861 42.7947C33.7091 42.5006 34.6219 42.4439 35.5002 42.6309C36.3784 42.8178 37.1883 43.2412 37.8417 43.855C38.0566 43.7043 38.3069 43.6114 38.5683 43.5853C38.8298 43.5592 39.0936 43.6009 39.3342 43.7062C39.8135 43.9233 40.2304 44.2567 40.5468 44.6759C41.3459 45.6686 41.8597 46.8586 42.0338 48.1193C42.2078 49.3799 42.0355 50.6639 41.5352 51.8347C41.7053 51.2183 41.0853 50.6384 40.4589 50.5001C39.8325 50.3618 39.1754 50.4927 38.5402 50.4026C37.726 50.2872 36.9942 49.8166 36.1787 49.7107C35.4872 49.6659 34.7936 49.7547 34.1359 49.9723C33.4784 50.1898 32.7857 50.2825 32.0939 50.2455C31.4075 50.1643 30.5235 52.7556 30.5353 54.5808C30.5376 54.9267 30.4661 55.3708 30.1268 55.4441C29.709 55.5345 29.4669 54.96 29.0692 54.8034C28.8859 54.7511 28.6894 54.7717 28.521 54.8609C28.3527 54.9501 28.2257 55.1009 28.1668 55.2816C28.1166 55.4652 28.1113 55.6581 28.1511 55.8443C28.1909 56.0304 28.2748 56.2044 28.3958 56.3517C28.6402 56.6438 28.9304 56.8946 29.2551 57.0944L29.0914 57.2302C28.8189 57.5888 28.2538 57.6043 27.8611 57.3824C27.4856 57.1291 27.1815 56.7841 26.9778 56.3804C26.2513 55.1765 25.614 53.8938 25.3576 52.5125C25.1012 51.1311 25.2581 49.6321 26.0235 48.4523Z" fill="var(--fill-0, #2F2E41)" id="Vector_12"/>
<path d="M184.733 9.80598H14.4677C14.3962 9.80442 14.3282 9.77503 14.2782 9.72412C14.2282 9.67321 14.2002 9.60482 14.2002 9.53359C14.2002 9.46237 14.2282 9.39398 14.2782 9.34307C14.3282 9.29215 14.3962 9.26277 14.4677 9.2612H184.733C184.804 9.26277 184.872 9.29215 184.922 9.34307C184.972 9.39398 185 9.46237 185 9.53359C185 9.60482 184.972 9.67321 184.922 9.72412C184.872 9.77503 184.804 9.80442 184.733 9.80598Z" fill="var(--fill-0, #CACACA)" id="Vector_13"/>
<path d="M20.4872 5.99254C22.1119 5.99254 23.429 4.65107 23.429 2.99627C23.429 1.34148 22.1119 0 20.4872 0C18.8625 0 17.5453 1.34148 17.5453 2.99627C17.5453 4.65107 18.8625 5.99254 20.4872 5.99254Z" fill="var(--fill-0, #3F3D56)" id="Vector_14"/>
<path d="M30.65 5.99254C32.2747 5.99254 33.5918 4.65107 33.5918 2.99627C33.5918 1.34148 32.2747 0 30.65 0C29.0252 0 27.7081 1.34148 27.7081 2.99627C27.7081 4.65107 29.0252 5.99254 30.65 5.99254Z" fill="var(--fill-0, #3F3D56)" id="Vector_15"/>
<path d="M40.8127 5.99254C42.4375 5.99254 43.7546 4.65107 43.7546 2.99627C43.7546 1.34148 42.4375 0 40.8127 0C39.188 0 37.8709 1.34148 37.8709 2.99627C37.8709 4.65107 39.188 5.99254 40.8127 5.99254Z" fill="var(--fill-0, #3F3D56)" id="Vector_16"/>
<path d="M178.643 0.742657H171.423C171.28 0.745488 171.144 0.804104 171.044 0.905926C170.944 1.00775 170.888 1.14466 170.888 1.28725C170.888 1.42984 170.944 1.56674 171.044 1.66857C171.144 1.77039 171.28 1.82901 171.423 1.83184H178.643C178.786 1.82901 178.922 1.77039 179.022 1.66857C179.122 1.56674 179.178 1.42984 179.178 1.28725C179.178 1.14466 179.122 1.00775 179.022 0.905926C178.922 0.804104 178.786 0.745488 178.643 0.742657Z" fill="var(--fill-0, #3F3D56)" id="Vector_17"/>
<path d="M178.643 2.78688H171.423C171.28 2.78971 171.144 2.84833 171.044 2.95016C170.944 3.05198 170.888 3.18888 170.888 3.33147C170.888 3.47406 170.944 3.61097 171.044 3.71279C171.144 3.81461 171.28 3.87323 171.423 3.87606H178.643C178.786 3.87323 178.922 3.81461 179.022 3.71279C179.122 3.61097 179.178 3.47406 179.178 3.33147C179.178 3.18888 179.122 3.05198 179.022 2.95016C178.922 2.84833 178.786 2.78971 178.643 2.78688Z" fill="var(--fill-0, #3F3D56)" id="Vector_18"/>
<path d="M178.643 4.82842H171.423C171.28 4.83125 171.144 4.88987 171.044 4.99169C170.944 5.09352 170.888 5.23042 170.888 5.37301C170.888 5.51561 170.944 5.65251 171.044 5.75433C171.144 5.85615 171.28 5.91478 171.423 5.91761H178.643C178.786 5.91478 178.922 5.85615 179.022 5.75433C179.122 5.65251 179.178 5.51561 179.178 5.37301C179.178 5.23042 179.122 5.09352 179.022 4.99169C178.922 4.88987 178.786 4.83125 178.643 4.82842Z" fill="var(--fill-0, #3F3D56)" id="Vector_19"/>
<path d="M169.471 20.6272H29.7288C28.9551 20.6284 28.2133 20.9351 27.6661 21.4802C27.119 22.0254 26.8111 22.7644 26.8099 23.5353V24.0043C26.8111 24.7752 27.119 25.5142 27.6661 26.0593C28.2133 26.6044 28.9551 26.9112 29.7288 26.9123H169.471C170.245 26.9112 170.987 26.6044 171.534 26.0593C172.081 25.5142 172.389 24.7752 172.39 24.0043V23.5353C172.389 22.7644 172.081 22.0254 171.534 21.4802C170.987 20.9351 170.245 20.6284 169.471 20.6272Z" fill="var(--fill-0, #F0F0F0)" id="Vector_20"/>
<path d="M46.5932 24.9302H33.2913C32.9934 24.9302 32.7077 24.8123 32.497 24.6024C32.2864 24.3925 32.168 24.1079 32.168 23.8111C32.168 23.5143 32.2864 23.2296 32.497 23.0197C32.7077 22.8099 32.9934 22.692 33.2913 22.692H46.5932C48.0418 22.6718 48.0562 24.9505 46.5932 24.9302Z" fill="var(--fill-0, white)" id="Vector_21"/>
<path d="M86.3851 24.9302H73.0832C72.7853 24.9302 72.4996 24.8123 72.289 24.6024C72.0783 24.3925 71.96 24.1079 71.96 23.8111C71.96 23.5143 72.0783 23.2296 72.289 23.0197C72.4996 22.8099 72.7853 22.692 73.0832 22.692H86.3851C87.8337 22.6718 87.8482 24.9505 86.3851 24.9302Z" fill="var(--fill-0, white)" id="Vector_22"/>
<path d="M126.177 24.9302H112.875C112.577 24.9302 112.292 24.8123 112.081 24.6024C111.87 24.3925 111.752 24.1079 111.752 23.8111C111.752 23.5143 111.87 23.2296 112.081 23.0197C112.292 22.8099 112.577 22.692 112.875 22.692H126.177C127.626 22.6718 127.64 24.9505 126.177 24.9302Z" fill="var(--fill-0, white)" id="Vector_23"/>
<path d="M163.907 25.051H150.605C150.307 25.051 150.021 24.9331 149.81 24.7233C149.6 24.5134 149.482 24.2287 149.482 23.9319C149.482 23.6351 149.6 23.3505 149.81 23.1406C150.021 22.9307 150.307 22.8128 150.605 22.8128H163.907C165.355 22.7927 165.37 25.0714 163.907 25.051Z" fill="var(--fill-0, #FFD545)" id="Vector_24"/>
<path d="M143.153 20.6272H142.668V26.9123H143.153V20.6272Z" fill="var(--fill-0, white)" id="Vector_25"/>
<path d="M72.8983 81.8009C72.8785 81.8009 72.8586 81.8005 72.8386 81.7997C72.605 81.7912 72.3768 81.7267 72.1736 81.6116C71.9704 81.4964 71.7981 81.334 71.6714 81.1383C70.7223 79.7251 69.5576 78.4681 68.2194 77.4128C67.4093 76.7677 66.5627 76.1679 65.7441 75.5877C63.632 74.0916 61.6431 72.6824 60.539 70.7354C58.1317 66.4897 60.9666 60.5761 65.0165 57.9241C69.559 54.9497 75.5339 54.4831 81.314 54.422C81.9147 54.4157 82.5158 54.4125 83.1172 54.4126C93.5317 54.4165 103.924 55.3633 114.167 57.2411C117.573 57.8671 121.138 58.6341 124.003 60.4952C126.85 62.3454 128.581 65.259 128.413 67.9181C128.166 71.8 124.036 74.7006 120.275 75.459C116.69 76.1812 112.965 75.6931 109.023 75.1762C108.152 75.0622 107.252 74.9442 106.362 74.8417C96.6903 73.7279 78.5206 77.161 77.7519 77.3077L76.9893 77.4532L74.0302 81.247C73.8971 81.4199 73.7257 81.5599 73.5294 81.6559C73.333 81.752 73.1171 81.8016 72.8983 81.8009Z" fill="var(--fill-0, #FFD545)" id="Vector_26"/>
<path d="M115.969 62.8635H75.0886C74.8527 62.8635 74.6265 62.7701 74.4597 62.604C74.2928 62.4378 74.1991 62.2124 74.1991 61.9773C74.1991 61.7423 74.2928 61.5169 74.4597 61.3507C74.6265 61.1845 74.8527 61.0912 75.0886 61.0912H115.969C116.205 61.0912 116.432 61.1845 116.598 61.3507C116.765 61.5169 116.859 61.7423 116.859 61.9773C116.859 62.2124 116.765 62.4378 116.598 62.604C116.432 62.7701 116.205 62.8635 115.969 62.8635Z" fill="var(--fill-0, white)" id="Vector_27"/>
<path d="M115.969 68.303H75.0886C74.9718 68.3031 74.8561 68.2803 74.7481 68.2359C74.6402 68.1915 74.5421 68.1263 74.4594 68.0441C74.3767 67.9619 74.3111 67.8643 74.2663 67.7568C74.2215 67.6493 74.1983 67.5341 74.1982 67.4177C74.1981 67.3014 74.221 67.1861 74.2655 67.0785C74.3101 66.971 74.3756 66.8732 74.4581 66.7908C74.5406 66.7085 74.6386 66.6431 74.7464 66.5985C74.8543 66.5538 74.9699 66.5308 75.0867 66.5306H115.969C116.205 66.5306 116.432 66.624 116.598 66.7902C116.765 66.9564 116.859 67.1818 116.859 67.4168C116.859 67.6518 116.765 67.8772 116.598 68.0434C116.432 68.2096 116.205 68.303 115.969 68.303Z" fill="var(--fill-0, white)" id="Vector_28"/>
<path d="M79.8527 73.7424H75.0886C74.8527 73.7424 74.6265 73.649 74.4597 73.4828C74.2928 73.3166 74.1991 73.0912 74.1991 72.8562C74.1991 72.6211 74.2928 72.3957 74.4597 72.2295C74.6265 72.0634 74.8527 71.97 75.0886 71.97H79.8527C80.0886 71.97 80.3148 72.0634 80.4816 72.2295C80.6484 72.3957 80.7421 72.6211 80.7421 72.8562C80.7421 73.0912 80.6484 73.3166 80.4816 73.4828C80.3148 73.649 80.0886 73.7424 79.8527 73.7424Z" fill="var(--fill-0, white)" id="Vector_29"/>
<path d="M145.902 110.126L143.545 107.104L142.938 106.988C142.325 106.871 127.852 104.137 120.148 105.024C119.439 105.106 118.722 105.2 118.029 105.291C114.889 105.702 111.922 106.091 109.067 105.516C106.071 104.912 102.781 102.601 102.584 99.5092C102.45 97.391 103.829 95.0703 106.097 93.5965C108.379 92.114 111.219 91.5032 113.932 91.0045C122.09 89.5087 130.368 88.7546 138.664 88.7514C139.143 88.7514 139.622 88.7539 140.1 88.7589C144.704 88.8077 149.464 89.1793 153.082 91.5485C156.308 93.661 158.566 98.3714 156.648 101.753C155.769 103.304 154.185 104.427 152.502 105.618C151.85 106.08 151.176 106.558 150.531 107.072C149.465 107.913 148.537 108.914 147.781 110.04C147.68 110.196 147.543 110.325 147.381 110.417C147.219 110.508 147.037 110.56 146.851 110.566C146.835 110.567 146.82 110.567 146.804 110.567C146.629 110.568 146.457 110.528 146.301 110.452C146.145 110.375 146.008 110.264 145.902 110.126Z" fill="var(--fill-0, #F2F2F2)" id="Vector_30"/>
<path d="M112.496 95.483H145.059C145.247 95.4826 145.427 95.4081 145.559 95.2757C145.692 95.1434 145.766 94.9641 145.766 94.7771C145.766 94.5901 145.692 94.4108 145.559 94.2784C145.427 94.1461 145.247 94.0716 145.059 94.0712H112.496C112.308 94.0716 112.128 94.1461 111.996 94.2784C111.863 94.4108 111.789 94.5901 111.789 94.7771C111.789 94.9641 111.863 95.1434 111.996 95.2757C112.128 95.4081 112.308 95.4826 112.496 95.483Z" fill="var(--fill-0, white)" id="Vector_31"/>
<path d="M112.496 99.8157H145.059C145.152 99.816 145.245 99.7979 145.331 99.7626C145.417 99.7273 145.495 99.6754 145.561 99.6099C145.627 99.5444 145.679 99.4666 145.715 99.3809C145.751 99.2953 145.769 99.2034 145.769 99.1106C145.77 99.0178 145.751 98.9259 145.716 98.8401C145.68 98.7544 145.628 98.6765 145.562 98.6108C145.496 98.5452 145.418 98.4932 145.332 98.4577C145.246 98.4222 145.154 98.4039 145.061 98.404H112.496C112.308 98.4043 112.128 98.4789 111.996 98.6112C111.863 98.7436 111.789 98.9229 111.789 99.1099C111.789 99.2968 111.863 99.4762 111.996 99.6085C112.128 99.7408 112.308 99.8154 112.496 99.8157Z" fill="var(--fill-0, white)" id="Vector_32"/>
<path d="M141.264 104.148H145.059C145.247 104.148 145.427 104.074 145.56 103.942C145.693 103.809 145.768 103.63 145.768 103.443C145.768 103.255 145.693 103.076 145.56 102.943C145.427 102.811 145.247 102.737 145.059 102.737H141.264C141.076 102.737 140.896 102.811 140.763 102.943C140.63 103.076 140.556 103.255 140.556 103.443C140.556 103.63 140.63 103.809 140.763 103.942C140.896 104.074 141.076 104.148 141.264 104.148Z" fill="var(--fill-0, white)" id="Vector_33"/>
<path d="M73.4032 87.979C75.791 87.979 77.7268 86.0505 77.7268 83.6714C77.7268 81.2924 75.791 79.3638 73.4032 79.3638C71.0153 79.3638 69.0796 81.2924 69.0796 83.6714C69.0796 86.0505 71.0153 87.979 73.4032 87.979Z" fill="var(--fill-0, white)" id="Vector_34"/>
<path d="M73.4032 88.0316C72.5376 88.0316 71.6915 87.7759 70.9718 87.2968C70.2521 86.8177 69.6912 86.1368 69.3599 85.34C69.0287 84.5433 68.942 83.6666 69.1109 82.8208C69.2797 81.975 69.6965 81.1981 70.3086 80.5884C70.9206 79.9786 71.7004 79.5633 72.5494 79.3951C73.3983 79.2268 74.2783 79.3132 75.0779 79.6432C75.8776 79.9732 76.5611 80.532 77.042 81.249C77.5229 81.9661 77.7796 82.8091 77.7796 83.6714C77.7783 84.8274 77.3168 85.9357 76.4963 86.7531C75.6759 87.5705 74.5635 88.0303 73.4032 88.0316Z" fill="var(--fill-0, #3F3D56)" id="Vector_35"/>
<path d="M73.0795 85.393C73.0703 85.393 73.061 85.3927 73.0518 85.3923C72.9704 85.3883 72.8908 85.3669 72.8184 85.3295C72.7461 85.292 72.6827 85.2394 72.6327 85.1753L71.9102 84.2498C71.8645 84.1914 71.8309 84.1246 71.8112 84.0532C71.7915 83.9819 71.786 83.9073 71.7953 83.8339C71.8045 83.7604 71.8281 83.6895 71.8648 83.6252C71.9015 83.5608 71.9506 83.5043 72.0093 83.4589L72.0353 83.4387C72.0939 83.3932 72.161 83.3597 72.2326 83.34C72.3043 83.3204 72.3791 83.315 72.4529 83.3242C72.5266 83.3334 72.5978 83.3569 72.6624 83.3935C72.727 83.4302 72.7837 83.4791 72.8293 83.5376C72.8658 83.5842 72.912 83.6225 72.9647 83.6498C73.0174 83.6771 73.0754 83.6927 73.1348 83.6955C73.1941 83.6984 73.2533 83.6885 73.3085 83.6665C73.3636 83.6444 73.4133 83.6108 73.4542 83.5679L74.9212 82.0248C75.0245 81.9164 75.1667 81.8533 75.3166 81.8492C75.4666 81.8452 75.612 81.9005 75.721 82.0031L75.7451 82.026C75.799 82.0769 75.8424 82.1379 75.8727 82.2055C75.9029 82.273 75.9196 82.3459 75.9216 82.4199C75.9236 82.4939 75.9109 82.5676 75.8843 82.6367C75.8578 82.7058 75.8178 82.769 75.7667 82.8227L73.49 85.2169C73.4372 85.2726 73.3735 85.3169 73.3029 85.3471C73.2324 85.3774 73.1563 85.393 73.0795 85.393Z" fill="var(--fill-0, white)" id="Vector_36"/>
<path d="M147.066 116.546C149.454 116.546 151.389 114.618 151.389 112.239C151.389 109.86 149.454 107.931 147.066 107.931C144.678 107.931 142.742 109.86 142.742 112.239C142.742 114.618 144.678 116.546 147.066 116.546Z" fill="var(--fill-0, white)" id="Vector_37"/>
<path d="M147.066 116.599C146.2 116.599 145.354 116.343 144.634 115.864C143.915 115.385 143.354 114.704 143.023 113.907C142.691 113.111 142.605 112.234 142.774 111.388C142.942 110.542 143.359 109.765 143.971 109.156C144.583 108.546 145.363 108.13 146.212 107.962C147.061 107.794 147.941 107.88 148.741 108.21C149.54 108.54 150.224 109.099 150.705 109.816C151.186 110.533 151.442 111.376 151.442 112.239C151.441 113.395 150.979 114.503 150.159 115.32C149.339 116.138 148.226 116.598 147.066 116.599Z" fill="var(--fill-0, #E6E6E6)" id="Vector_38"/>
<path d="M146.742 113.96C146.733 113.96 146.724 113.96 146.715 113.959C146.633 113.956 146.553 113.934 146.481 113.897C146.409 113.859 146.345 113.807 146.295 113.742L145.573 112.817C145.527 112.759 145.494 112.692 145.474 112.62C145.454 112.549 145.449 112.475 145.458 112.401C145.467 112.328 145.491 112.257 145.528 112.192C145.564 112.128 145.613 112.071 145.672 112.026L145.698 112.006C145.757 111.96 145.824 111.927 145.895 111.907C145.967 111.888 146.042 111.882 146.116 111.891C146.189 111.901 146.261 111.924 146.325 111.961C146.39 111.997 146.446 112.046 146.492 112.105C146.529 112.151 146.575 112.19 146.627 112.217C146.68 112.244 146.738 112.26 146.797 112.263C146.857 112.266 146.916 112.256 146.971 112.234C147.026 112.212 147.076 112.178 147.117 112.135L148.584 110.592C148.687 110.484 148.829 110.42 148.979 110.416C149.129 110.412 149.275 110.468 149.384 110.57L149.408 110.593C149.462 110.644 149.505 110.705 149.535 110.773C149.566 110.84 149.582 110.913 149.584 110.987C149.586 111.061 149.574 111.135 149.547 111.204C149.52 111.273 149.481 111.336 149.429 111.39L147.153 113.784C147.1 113.84 147.036 113.884 146.966 113.914C146.895 113.945 146.819 113.96 146.742 113.96Z" fill="var(--fill-0, white)" id="Vector_39"/>
<path d="M67.1555 166.309L65.0794 162.985L64.6647 164.885C64.592 165.217 64.5193 165.555 64.452 165.891C63.8623 165.389 63.2349 164.925 62.621 164.48C60.7361 163.117 58.8521 161.752 56.969 160.386L57.5587 163.793C57.9222 165.891 58.3019 168.032 59.2013 169.95C59.3009 170.167 59.4086 170.382 59.5244 170.591H68.2864C68.3569 170.397 68.4057 170.195 68.4318 169.99C68.434 169.977 68.4349 169.963 68.4345 169.95C68.5719 168.649 67.8502 167.423 67.1555 166.309Z" fill="var(--fill-0, #F0F0F0)" id="Vector_40"/>
<path d="M74.5715 170.918L0.320614 171C0.235743 171 0.154429 170.966 0.0945031 170.906C0.0345768 170.846 0.000922976 170.765 0.000922976 170.681C0.000922976 170.596 0.0345768 170.515 0.0945031 170.455C0.154429 170.395 0.235743 170.361 0.320614 170.361L74.5715 170.279C74.6136 170.279 74.6554 170.287 74.6944 170.303C74.7334 170.319 74.7689 170.342 74.7988 170.372C74.8286 170.402 74.8523 170.437 74.8685 170.476C74.8847 170.514 74.893 170.556 74.893 170.598C74.893 170.64 74.8847 170.682 74.8685 170.721C74.8523 170.759 74.8286 170.795 74.7988 170.824C74.7689 170.854 74.7334 170.877 74.6944 170.893C74.6554 170.909 74.6136 170.918 74.5715 170.918Z" fill="var(--fill-0, #CACACA)" id="Vector_41"/>
</g>
<defs>
<clipPath id="clip0_0_188">
<rect fill="white" height="171" width="185"/>
</clipPath>
</defs>
</svg>